<mxfile host="app.diagrams.net" modified="2024-01-02T15:30:01.806Z" agent="Mozilla/5.0 (Windows NT 10.0; Win64; x64) AppleWebKit/537.36 (KHTML, like Gecko) Chrome/120.0.0.0 Safari/537.36" etag="DSY9Fd3BIdhQZRE7MHU3" version="22.1.16" type="onedrive">
  <diagram id="C5RBs43oDa-KdzZeNtuy" name="Page-1">
    <mxGraphModel grid="1" page="1" gridSize="10" guides="1" tooltips="1" connect="1" arrows="1" fold="1" pageScale="1" pageWidth="827" pageHeight="1169" math="0" shadow="0">
      <root>
        <mxCell id="WIyWlLk6GJQsqaUBKTNV-0" />
        <mxCell id="WIyWlLk6GJQsqaUBKTNV-1" parent="WIyWlLk6GJQsqaUBKTNV-0" />
        <mxCell id="lOGXAbCOyEfxw4sRU7QS-70" style="edgeStyle=orthogonalEdgeStyle;rounded=0;orthogonalLoop=1;jettySize=auto;html=1;exitX=0.25;exitY=1;exitDx=0;exitDy=0;entryX=0.5;entryY=0;entryDx=0;entryDy=0;labelBackgroundColor=none;fontColor=default;strokeColor=#182E3E;" edge="1" parent="WIyWlLk6GJQsqaUBKTNV-1" source="lOGXAbCOyEfxw4sRU7QS-0" target="lOGXAbCOyEfxw4sRU7QS-68">
          <mxGeometry relative="1" as="geometry" />
        </mxCell>
        <mxCell id="bgav8Fi3GHFBIJAae7oM-3" style="edgeStyle=none;curved=1;rounded=0;orthogonalLoop=1;jettySize=auto;html=1;exitX=0.5;exitY=0;exitDx=0;exitDy=0;fontSize=12;startSize=8;endSize=8;" edge="1" parent="WIyWlLk6GJQsqaUBKTNV-1" source="lOGXAbCOyEfxw4sRU7QS-0">
          <mxGeometry relative="1" as="geometry">
            <mxPoint x="90" y="-1120" as="targetPoint" />
          </mxGeometry>
        </mxCell>
        <mxCell id="lOGXAbCOyEfxw4sRU7QS-0" value="&lt;div style=&quot;font-family: Consolas, &amp;quot;Courier New&amp;quot;, monospace; line-height: 19px;&quot;&gt;&lt;div style=&quot;line-height: 19px;&quot;&gt;&lt;font style=&quot;font-size: 17px;&quot; color=&quot;#ffffff&quot;&gt;ZiskavanieDatZoSluzieb&lt;/font&gt;&lt;/div&gt;&lt;/div&gt;" style="rounded=0;whiteSpace=wrap;html=1;labelBackgroundColor=none;fillColor=#FF0000;strokeColor=#36393d;fontStyle=1" vertex="1" parent="WIyWlLk6GJQsqaUBKTNV-1">
          <mxGeometry x="-35.25" y="-819" width="250" height="140" as="geometry" />
        </mxCell>
        <mxCell id="lOGXAbCOyEfxw4sRU7QS-60" style="edgeStyle=orthogonalEdgeStyle;rounded=0;orthogonalLoop=1;jettySize=auto;html=1;entryX=0.5;entryY=0;entryDx=0;entryDy=0;labelBackgroundColor=none;fontColor=default;strokeColor=#182E3E;" edge="1" parent="WIyWlLk6GJQsqaUBKTNV-1" source="lOGXAbCOyEfxw4sRU7QS-1" target="lOGXAbCOyEfxw4sRU7QS-0">
          <mxGeometry relative="1" as="geometry" />
        </mxCell>
        <mxCell id="lOGXAbCOyEfxw4sRU7QS-1" value="&lt;div style=&quot;font-family: Consolas, &amp;quot;Courier New&amp;quot;, monospace; font-size: 14px; line-height: 19px;&quot;&gt;&lt;font style=&quot;background-color: rgb(255, 255, 255);&quot; color=&quot;#1a1a1a&quot;&gt;__ziskajNestedObjekty&lt;/font&gt;&lt;/div&gt;" style="rounded=0;whiteSpace=wrap;html=1;labelBackgroundColor=none;fillColor=#F08E81;strokeColor=#FFFFFF;fontColor=#1A1A1A;" vertex="1" parent="WIyWlLk6GJQsqaUBKTNV-1">
          <mxGeometry x="-606.25" y="-959" width="170" height="60" as="geometry" />
        </mxCell>
        <mxCell id="fRCAeJa1ZqHoWWwUZXJR-5" style="edgeStyle=orthogonalEdgeStyle;rounded=0;orthogonalLoop=1;jettySize=auto;html=1;entryX=0.5;entryY=0;entryDx=0;entryDy=0;" edge="1" parent="WIyWlLk6GJQsqaUBKTNV-1" source="lOGXAbCOyEfxw4sRU7QS-2" target="lOGXAbCOyEfxw4sRU7QS-1">
          <mxGeometry relative="1" as="geometry">
            <Array as="points">
              <mxPoint x="-521" y="-959" />
            </Array>
          </mxGeometry>
        </mxCell>
        <mxCell id="lOGXAbCOyEfxw4sRU7QS-2" value="&lt;div style=&quot;font-family: Consolas, &amp;quot;Courier New&amp;quot;, monospace; font-size: 14px; line-height: 19px;&quot;&gt;&lt;font color=&quot;#1a1a1a&quot; style=&quot;background-color: rgb(255, 255, 255);&quot;&gt;__ziskajObjektoveHodnoty&lt;/font&gt;&lt;/div&gt;" style="whiteSpace=wrap;html=1;rounded=0;labelBackgroundColor=none;fillColor=#F08E81;strokeColor=#FFFFFF;fontColor=#1A1A1A;fontStyle=1" vertex="1" parent="WIyWlLk6GJQsqaUBKTNV-1">
          <mxGeometry x="-623.75" y="-1089" width="205" height="50" as="geometry" />
        </mxCell>
        <mxCell id="fRCAeJa1ZqHoWWwUZXJR-2" style="edgeStyle=orthogonalEdgeStyle;rounded=0;orthogonalLoop=1;jettySize=auto;html=1;entryX=0.5;entryY=0;entryDx=0;entryDy=0;" edge="1" parent="WIyWlLk6GJQsqaUBKTNV-1" source="lOGXAbCOyEfxw4sRU7QS-6" target="lOGXAbCOyEfxw4sRU7QS-77">
          <mxGeometry relative="1" as="geometry" />
        </mxCell>
        <mxCell id="lOGXAbCOyEfxw4sRU7QS-6" value="&lt;div style=&quot;font-family: Consolas, &amp;quot;Courier New&amp;quot;, monospace; font-size: 14px; line-height: 19px;&quot;&gt;&lt;span style=&quot;background-color: rgb(255, 255, 255);&quot;&gt;&lt;font color=&quot;#1a1a1a&quot;&gt;__ziskajVonkajsieObjekty&lt;/font&gt;&lt;/span&gt;&lt;/div&gt;" style="whiteSpace=wrap;html=1;rounded=0;labelBackgroundColor=none;fillColor=#F08E81;strokeColor=#FFFFFF;fontColor=#1A1A1A;fontStyle=1" vertex="1" parent="WIyWlLk6GJQsqaUBKTNV-1">
          <mxGeometry x="521.25" y="-609" width="206" height="60" as="geometry" />
        </mxCell>
        <mxCell id="fRCAeJa1ZqHoWWwUZXJR-1" style="edgeStyle=orthogonalEdgeStyle;rounded=0;orthogonalLoop=1;jettySize=auto;html=1;" edge="1" parent="WIyWlLk6GJQsqaUBKTNV-1" source="lOGXAbCOyEfxw4sRU7QS-12" target="lOGXAbCOyEfxw4sRU7QS-0">
          <mxGeometry relative="1" as="geometry">
            <Array as="points">
              <mxPoint x="294" y="-809" />
              <mxPoint x="294" y="-810" />
            </Array>
          </mxGeometry>
        </mxCell>
        <mxCell id="lOGXAbCOyEfxw4sRU7QS-12" value="&lt;div style=&quot;font-family: Consolas, &amp;quot;Courier New&amp;quot;, monospace; font-size: 14px; line-height: 19px;&quot;&gt;&lt;span style=&quot;background-color: rgb(255, 255, 255);&quot;&gt;&lt;br&gt;&lt;/span&gt;&lt;/div&gt;&lt;div style=&quot;font-family: Consolas, &amp;quot;Courier New&amp;quot;, monospace; font-size: 14px; line-height: 19px;&quot;&gt;&lt;div style=&quot;border-color: var(--border-color); text-align: left; line-height: 19px;&quot;&gt;&lt;div style=&quot;border-color: var(--border-color);&quot;&gt;&lt;font style=&quot;border-color: var(--border-color); background-color: rgb(255, 255, 255);&quot;&gt;__ziskajPrimitivneDoObjektu&lt;/font&gt;&lt;br&gt;&lt;/div&gt;&lt;/div&gt;&lt;font style=&quot;border-color: var(--border-color); font-family: Helvetica; font-size: 12px; text-align: left;&quot;&gt;&lt;span style=&quot;background-color: rgb(255, 255, 255);&quot;&gt;&lt;br style=&quot;border-color: var(--border-color); text-align: center;&quot;&gt;&lt;/span&gt;&lt;br style=&quot;border-color: var(--border-color);&quot;&gt;&lt;/font&gt;&lt;/div&gt;" style="whiteSpace=wrap;html=1;rounded=0;labelBackgroundColor=none;fillColor=#F08E81;strokeColor=#FFFFFF;fontColor=#1A1A1A;fontStyle=1;" vertex="1" parent="WIyWlLk6GJQsqaUBKTNV-1">
          <mxGeometry x="373.75" y="-839" width="216.25" height="60" as="geometry" />
        </mxCell>
        <mxCell id="lOGXAbCOyEfxw4sRU7QS-17" value="&lt;span style=&quot;background-color: rgb(255, 255, 255);&quot;&gt;__jePrimitivna&lt;/span&gt;&lt;font color=&quot;#ffffff&quot;&gt;&lt;br&gt;&lt;/font&gt;" style="rounded=0;whiteSpace=wrap;html=1;labelBackgroundColor=none;fillColor=#F08E81;strokeColor=#FFFFFF;fontColor=#1A1A1A;fontStyle=0" vertex="1" parent="WIyWlLk6GJQsqaUBKTNV-1">
          <mxGeometry x="381.25" y="-739" width="120" height="50" as="geometry" />
        </mxCell>
        <mxCell id="fRCAeJa1ZqHoWWwUZXJR-6" style="edgeStyle=orthogonalEdgeStyle;rounded=0;orthogonalLoop=1;jettySize=auto;html=1;exitX=0.5;exitY=1;exitDx=0;exitDy=0;" edge="1" parent="WIyWlLk6GJQsqaUBKTNV-1" source="lOGXAbCOyEfxw4sRU7QS-27" target="lOGXAbCOyEfxw4sRU7QS-58">
          <mxGeometry relative="1" as="geometry" />
        </mxCell>
        <mxCell id="lOGXAbCOyEfxw4sRU7QS-27" value="&lt;b style=&quot;background-color: rgb(255, 255, 255);&quot;&gt;__ziskajNestedObjekty&lt;/b&gt;" style="rounded=0;whiteSpace=wrap;html=1;labelBackgroundColor=none;fillColor=#F08E81;strokeColor=#FFFFFF;fontColor=#1A1A1A;" vertex="1" parent="WIyWlLk6GJQsqaUBKTNV-1">
          <mxGeometry x="-628.75" y="-669" width="210" height="60" as="geometry" />
        </mxCell>
        <mxCell id="lOGXAbCOyEfxw4sRU7QS-32" value="&lt;div style=&quot;font-family: Consolas, &amp;quot;Courier New&amp;quot;, monospace; font-size: 14px; line-height: 19px;&quot;&gt;&lt;font style=&quot;background-color: rgb(255, 255, 255);&quot; color=&quot;#1a1a1a&quot;&gt;__ziskajObjektoveKluce&lt;/font&gt;&lt;/div&gt;" style="whiteSpace=wrap;html=1;rounded=0;labelBackgroundColor=none;fillColor=#F08E81;strokeColor=#FFFFFF;fontColor=#1A1A1A;" vertex="1" parent="WIyWlLk6GJQsqaUBKTNV-1">
          <mxGeometry x="-268.75" y="-569" width="190" height="60" as="geometry" />
        </mxCell>
        <mxCell id="lOGXAbCOyEfxw4sRU7QS-62" style="edgeStyle=orthogonalEdgeStyle;rounded=0;orthogonalLoop=1;jettySize=auto;html=1;entryX=0.5;entryY=1;entryDx=0;entryDy=0;labelBackgroundColor=none;fontColor=default;strokeColor=#182E3E;" edge="1" parent="WIyWlLk6GJQsqaUBKTNV-1" source="lOGXAbCOyEfxw4sRU7QS-58" target="lOGXAbCOyEfxw4sRU7QS-0">
          <mxGeometry relative="1" as="geometry" />
        </mxCell>
        <mxCell id="lOGXAbCOyEfxw4sRU7QS-58" value="&lt;div style=&quot;font-family: Consolas, &amp;quot;Courier New&amp;quot;, monospace; font-size: 14px; line-height: 19px;&quot;&gt;&lt;font style=&quot;background-color: rgb(255, 255, 255);&quot; color=&quot;#1a1a1a&quot;&gt;__ziskajObjektoveHodnoty&lt;/font&gt;&lt;br&gt;&lt;/div&gt;" style="rounded=0;whiteSpace=wrap;html=1;labelBackgroundColor=none;fillColor=#F08E81;strokeColor=#FFFFFF;fontColor=#1A1A1A;" vertex="1" parent="WIyWlLk6GJQsqaUBKTNV-1">
          <mxGeometry x="-630" y="-499" width="212.5" height="60" as="geometry" />
        </mxCell>
        <mxCell id="lOGXAbCOyEfxw4sRU7QS-65" value="&lt;span style=&quot;background-color: rgb(255, 255, 255);&quot;&gt;&lt;font color=&quot;#1a1a1a&quot;&gt;&lt;br&gt;&lt;/font&gt;&lt;/span&gt;&lt;div style=&quot;font-family: Consolas, &amp;quot;Courier New&amp;quot;, monospace; font-weight: normal; font-size: 14px; line-height: 19px;&quot;&gt;&lt;div&gt;&lt;span style=&quot;font-style: italic; background-color: rgb(255, 255, 255);&quot;&gt;&lt;font color=&quot;#1a1a1a&quot;&gt;__primitivne&lt;/font&gt;&lt;/span&gt;&lt;/div&gt;&lt;/div&gt;&lt;span style=&quot;background-color: rgb(255, 255, 255);&quot;&gt;&lt;br&gt;&lt;/span&gt;" style="rounded=0;whiteSpace=wrap;html=1;labelBackgroundColor=none;fillColor=#F08E81;strokeColor=#FFFFFF;fontColor=#1A1A1A;" vertex="1" parent="WIyWlLk6GJQsqaUBKTNV-1">
          <mxGeometry x="-248.25" y="-749" width="120" height="60" as="geometry" />
        </mxCell>
        <mxCell id="fRCAeJa1ZqHoWWwUZXJR-11" style="edgeStyle=orthogonalEdgeStyle;rounded=0;orthogonalLoop=1;jettySize=auto;html=1;exitX=0.5;exitY=1;exitDx=0;exitDy=0;entryX=0.5;entryY=0;entryDx=0;entryDy=0;" edge="1" parent="WIyWlLk6GJQsqaUBKTNV-1" source="lOGXAbCOyEfxw4sRU7QS-67" target="lOGXAbCOyEfxw4sRU7QS-32">
          <mxGeometry relative="1" as="geometry" />
        </mxCell>
        <mxCell id="lOGXAbCOyEfxw4sRU7QS-67" value="&lt;div style=&quot;font-family: Consolas, &amp;quot;Courier New&amp;quot;, monospace; font-size: 14px; line-height: 19px;&quot;&gt;&lt;font style=&quot;background-color: rgb(255, 255, 255);&quot; color=&quot;#1a1a1a&quot;&gt;__ziskajNestedObjekty&lt;/font&gt;&lt;/div&gt;" style="rounded=0;whiteSpace=wrap;html=1;labelBackgroundColor=none;fillColor=#F08E81;strokeColor=#FFFFFF;fontColor=#1A1A1A;" vertex="1" parent="WIyWlLk6GJQsqaUBKTNV-1">
          <mxGeometry x="-258.75" y="-659" width="170" height="60" as="geometry" />
        </mxCell>
        <mxCell id="fRCAeJa1ZqHoWWwUZXJR-7" style="edgeStyle=orthogonalEdgeStyle;rounded=0;orthogonalLoop=1;jettySize=auto;html=1;exitX=0.5;exitY=1;exitDx=0;exitDy=0;entryX=0.5;entryY=0;entryDx=0;entryDy=0;" edge="1" parent="WIyWlLk6GJQsqaUBKTNV-1" source="lOGXAbCOyEfxw4sRU7QS-68" target="lOGXAbCOyEfxw4sRU7QS-65">
          <mxGeometry relative="1" as="geometry" />
        </mxCell>
        <mxCell id="lOGXAbCOyEfxw4sRU7QS-68" value="&lt;div style=&quot;font-family: Consolas, &amp;quot;Courier New&amp;quot;, monospace; font-size: 14px; line-height: 19px;&quot;&gt;&lt;span style=&quot;background-color: rgb(255, 255, 255);&quot;&gt;&lt;font color=&quot;#1a1a1a&quot;&gt;__ziskajUdaje&lt;/font&gt;&lt;/span&gt;&lt;/div&gt;" style="rounded=0;whiteSpace=wrap;html=1;labelBackgroundColor=none;fillColor=#F08E81;strokeColor=#FFFFFF;fontColor=#1A1A1A;fontStyle=1" vertex="1" parent="WIyWlLk6GJQsqaUBKTNV-1">
          <mxGeometry x="-248.25" y="-829" width="120" height="60" as="geometry" />
        </mxCell>
        <mxCell id="lOGXAbCOyEfxw4sRU7QS-77" value="&lt;div style=&quot;font-family: Consolas, &amp;quot;Courier New&amp;quot;, monospace; font-size: 14px; line-height: 19px;&quot;&gt;&lt;font style=&quot;background-color: rgb(255, 255, 255);&quot; color=&quot;#1a1a1a&quot;&gt;__ziskajObjektoveHodnoty&lt;/font&gt;&lt;/div&gt;" style="whiteSpace=wrap;html=1;rounded=0;labelBackgroundColor=none;fillColor=#F08E81;strokeColor=#FFFFFF;fontColor=#1A1A1A;" vertex="1" parent="WIyWlLk6GJQsqaUBKTNV-1">
          <mxGeometry x="521.25" y="-499" width="205" height="60" as="geometry" />
        </mxCell>
        <mxCell id="lOGXAbCOyEfxw4sRU7QS-80" style="edgeStyle=orthogonalEdgeStyle;rounded=0;orthogonalLoop=1;jettySize=auto;html=1;entryX=0.996;entryY=0.657;entryDx=0;entryDy=0;entryPerimeter=0;labelBackgroundColor=none;fontColor=default;strokeColor=#182E3E;" edge="1" parent="WIyWlLk6GJQsqaUBKTNV-1" source="lOGXAbCOyEfxw4sRU7QS-77" target="lOGXAbCOyEfxw4sRU7QS-0">
          <mxGeometry relative="1" as="geometry" />
        </mxCell>
        <mxCell id="lOGXAbCOyEfxw4sRU7QS-99" style="edgeStyle=orthogonalEdgeStyle;rounded=0;orthogonalLoop=1;jettySize=auto;html=1;exitX=0;exitY=0.5;exitDx=0;exitDy=0;entryX=0.75;entryY=0;entryDx=0;entryDy=0;labelBackgroundColor=none;fontColor=default;strokeColor=#182E3E;" edge="1" parent="WIyWlLk6GJQsqaUBKTNV-1" source="lOGXAbCOyEfxw4sRU7QS-84" target="lOGXAbCOyEfxw4sRU7QS-0">
          <mxGeometry relative="1" as="geometry" />
        </mxCell>
        <mxCell id="lOGXAbCOyEfxw4sRU7QS-84" value="&lt;div style=&quot;font-family: Consolas, &amp;quot;Courier New&amp;quot;, monospace; font-size: 14px; line-height: 19px;&quot;&gt;&lt;span style=&quot;background-color: rgb(255, 255, 255);&quot;&gt;&lt;font color=&quot;#1a1a1a&quot;&gt;__ziskajObjektoveHodnoty&lt;/font&gt;&lt;/span&gt;&lt;/div&gt;" style="whiteSpace=wrap;html=1;rounded=0;labelBackgroundColor=none;fillColor=#F08E81;strokeColor=#FFFFFF;fontColor=#1A1A1A;fontStyle=1" vertex="1" parent="WIyWlLk6GJQsqaUBKTNV-1">
          <mxGeometry x="338.75" y="-1029" width="190" height="60" as="geometry" />
        </mxCell>
        <mxCell id="lOGXAbCOyEfxw4sRU7QS-87" value="&lt;div style=&quot;font-family: Consolas, &amp;quot;Courier New&amp;quot;, monospace; font-size: 14px; line-height: 19px;&quot;&gt;&lt;span style=&quot;background-color: rgb(255, 255, 255);&quot;&gt;&lt;font color=&quot;#1a1a1a&quot;&gt;__jePrimitivna&lt;/font&gt;&lt;/span&gt;&lt;/div&gt;" style="whiteSpace=wrap;html=1;rounded=0;labelBackgroundColor=none;fillColor=#F08E81;strokeColor=#FFFFFF;fontColor=#1A1A1A;fontStyle=1" vertex="1" parent="WIyWlLk6GJQsqaUBKTNV-1">
          <mxGeometry x="338.75" y="-949" width="190" height="60" as="geometry" />
        </mxCell>
        <mxCell id="lOGXAbCOyEfxw4sRU7QS-90" value="&lt;div style=&quot;font-family: Consolas, &amp;quot;Courier New&amp;quot;, monospace; font-size: 14px; line-height: 19px;&quot;&gt;&lt;span style=&quot;background-color: rgb(255, 255, 255);&quot;&gt;&lt;font color=&quot;#1a1a1a&quot;&gt;__ziskajObjektoveKluce&lt;/font&gt;&lt;/span&gt;&lt;/div&gt;" style="rounded=0;whiteSpace=wrap;html=1;labelBackgroundColor=none;fillColor=#F08E81;strokeColor=#FFFFFF;fontColor=#1A1A1A;fontStyle=1" vertex="1" parent="WIyWlLk6GJQsqaUBKTNV-1">
          <mxGeometry x="338.75" y="-1109" width="190" height="60" as="geometry" />
        </mxCell>
        <mxCell id="lOGXAbCOyEfxw4sRU7QS-98" style="edgeStyle=orthogonalEdgeStyle;rounded=0;orthogonalLoop=1;jettySize=auto;html=1;exitX=0;exitY=0.5;exitDx=0;exitDy=0;entryX=0.644;entryY=-0.014;entryDx=0;entryDy=0;entryPerimeter=0;labelBackgroundColor=none;fontColor=default;strokeColor=#182E3E;" edge="1" parent="WIyWlLk6GJQsqaUBKTNV-1" source="lOGXAbCOyEfxw4sRU7QS-90" target="lOGXAbCOyEfxw4sRU7QS-0">
          <mxGeometry relative="1" as="geometry" />
        </mxCell>
        <mxCell id="lOGXAbCOyEfxw4sRU7QS-100" style="edgeStyle=orthogonalEdgeStyle;rounded=0;orthogonalLoop=1;jettySize=auto;html=1;exitX=0;exitY=0.5;exitDx=0;exitDy=0;entryX=0.868;entryY=-0.014;entryDx=0;entryDy=0;entryPerimeter=0;labelBackgroundColor=none;fontColor=default;strokeColor=#182E3E;" edge="1" parent="WIyWlLk6GJQsqaUBKTNV-1" source="lOGXAbCOyEfxw4sRU7QS-87" target="lOGXAbCOyEfxw4sRU7QS-0">
          <mxGeometry relative="1" as="geometry" />
        </mxCell>
        <mxCell id="YXiaKdGjtoN9CGgRaMWh-12" value="" style="edgeStyle=orthogonalEdgeStyle;rounded=0;orthogonalLoop=1;jettySize=auto;html=1;" edge="1" parent="WIyWlLk6GJQsqaUBKTNV-1" source="lOGXAbCOyEfxw4sRU7QS-101">
          <mxGeometry relative="1" as="geometry">
            <mxPoint x="94.74999999999955" y="-109" as="targetPoint" />
          </mxGeometry>
        </mxCell>
        <mxCell id="lOGXAbCOyEfxw4sRU7QS-101" value="&lt;div style=&quot;font-family: Consolas, &amp;quot;Courier New&amp;quot;, monospace; line-height: 19px;&quot;&gt;&lt;div style=&quot;line-height: 19px;&quot;&gt;&lt;font style=&quot;font-size: 17px;&quot; color=&quot;#ffffff&quot;&gt;Spracovanie dát&lt;/font&gt;&lt;/div&gt;&lt;/div&gt;" style="rounded=0;whiteSpace=wrap;html=1;labelBackgroundColor=none;fillColor=#00994D;strokeColor=#36393d;fontStyle=1" vertex="1" parent="WIyWlLk6GJQsqaUBKTNV-1">
          <mxGeometry x="-25.25" y="-319" width="240" height="140" as="geometry" />
        </mxCell>
        <mxCell id="lOGXAbCOyEfxw4sRU7QS-104" value="&lt;div style=&quot;font-family: Consolas, &amp;quot;Courier New&amp;quot;, monospace; font-size: 14px; line-height: 19px;&quot;&gt;&lt;font style=&quot;&quot; color=&quot;#ffffff&quot;&gt;__najdiDuplikat&lt;/font&gt;&lt;/div&gt;" style="whiteSpace=wrap;html=1;fillColor=#F08E81;strokeColor=#36393d;rounded=0;labelBackgroundColor=none;fontStyle=1;" vertex="1" parent="WIyWlLk6GJQsqaUBKTNV-1">
          <mxGeometry x="332" y="-269" width="162.5" height="60" as="geometry" />
        </mxCell>
        <mxCell id="lOGXAbCOyEfxw4sRU7QS-107" value="" style="shape=flexArrow;endArrow=classic;html=1;rounded=0;strokeColor=#182E3E;fontColor=#1A1A1A;exitX=0.566;exitY=1.021;exitDx=0;exitDy=0;exitPerimeter=0;entryX=0.531;entryY=0.007;entryDx=0;entryDy=0;entryPerimeter=0;" edge="1" parent="WIyWlLk6GJQsqaUBKTNV-1" target="lOGXAbCOyEfxw4sRU7QS-101">
          <mxGeometry width="50" height="50" relative="1" as="geometry">
            <mxPoint x="106.25" y="-679" as="sourcePoint" />
            <mxPoint x="104.8188888888887" y="-321.94" as="targetPoint" />
          </mxGeometry>
        </mxCell>
        <mxCell id="ui6PFzpnOUfT__pSeQLo-5" value="Citanie" style="swimlane;fontStyle=0;childLayout=stackLayout;horizontal=1;startSize=30;horizontalStack=0;resizeParent=1;resizeParentMax=0;resizeLast=0;collapsible=1;marginBottom=0;whiteSpace=wrap;html=1;" vertex="1" parent="WIyWlLk6GJQsqaUBKTNV-1">
          <mxGeometry x="-78.75" y="-1154" width="140" height="150" as="geometry" />
        </mxCell>
        <mxCell id="ui6PFzpnOUfT__pSeQLo-6" value="Stred objekt" style="text;strokeColor=none;fillColor=none;align=center;verticalAlign=middle;spacingLeft=4;spacingRight=4;overflow=hidden;points=[[0,0.5],[1,0.5]];portConstraint=eastwest;rotatable=0;whiteSpace=wrap;html=1;" vertex="1" parent="ui6PFzpnOUfT__pSeQLo-5">
          <mxGeometry y="30" width="140" height="30" as="geometry" />
        </mxCell>
        <mxCell id="ui6PFzpnOUfT__pSeQLo-9" value="Na hlavnu pripojena funkcia potrebna pre fungovanie hlavnej" style="text;strokeColor=none;fillColor=none;align=left;verticalAlign=middle;spacingLeft=4;spacingRight=4;overflow=hidden;points=[[0,0.5],[1,0.5]];portConstraint=eastwest;rotatable=0;whiteSpace=wrap;html=1;" vertex="1" parent="ui6PFzpnOUfT__pSeQLo-5">
          <mxGeometry y="60" width="140" height="60" as="geometry" />
        </mxCell>
        <mxCell id="ui6PFzpnOUfT__pSeQLo-8" value="Hrube pismo(bold) hlavna funckcia" style="text;strokeColor=none;fillColor=none;align=left;verticalAlign=middle;spacingLeft=4;spacingRight=4;overflow=hidden;points=[[0,0.5],[1,0.5]];portConstraint=eastwest;rotatable=0;whiteSpace=wrap;html=1;" vertex="1" parent="ui6PFzpnOUfT__pSeQLo-5">
          <mxGeometry y="120" width="140" height="30" as="geometry" />
        </mxCell>
        <mxCell id="YXiaKdGjtoN9CGgRaMWh-9" style="edgeStyle=orthogonalEdgeStyle;rounded=0;orthogonalLoop=1;jettySize=auto;html=1;exitX=0;exitY=0.5;exitDx=0;exitDy=0;entryX=0.996;entryY=0.57;entryDx=0;entryDy=0;entryPerimeter=0;" edge="1" parent="WIyWlLk6GJQsqaUBKTNV-1" source="lOGXAbCOyEfxw4sRU7QS-104" target="lOGXAbCOyEfxw4sRU7QS-101">
          <mxGeometry relative="1" as="geometry" />
        </mxCell>
        <mxCell id="YXiaKdGjtoN9CGgRaMWh-10" value="&lt;b style=&quot;background-color: rgb(255, 255, 153);&quot;&gt;&lt;font style=&quot;font-size: 20px;&quot;&gt;Zdedi funkcie&lt;/font&gt;&lt;/b&gt;" style="text;html=1;strokeColor=none;fillColor=none;align=center;verticalAlign=middle;whiteSpace=wrap;rounded=0;rotation=90;" vertex="1" parent="WIyWlLk6GJQsqaUBKTNV-1">
          <mxGeometry x="37.5" y="-567.75" width="217.5" height="40" as="geometry" />
        </mxCell>
        <mxCell id="YXiaKdGjtoN9CGgRaMWh-13" value="&lt;font style=&quot;font-size: 13px;&quot; color=&quot;#ffffff&quot;&gt;UlozKlucHodnotuDoPostmana&lt;/font&gt;" style="whiteSpace=wrap;html=1;fillColor=#F08E81;strokeColor=#36393d;rounded=0;labelBackgroundColor=none;fontStyle=1;" vertex="1" parent="WIyWlLk6GJQsqaUBKTNV-1">
          <mxGeometry x="-14.129999999999995" y="-109" width="217.75" height="60" as="geometry" />
        </mxCell>
        <mxCell id="fRCAeJa1ZqHoWWwUZXJR-8" style="edgeStyle=orthogonalEdgeStyle;rounded=0;orthogonalLoop=1;jettySize=auto;html=1;exitX=0.5;exitY=1;exitDx=0;exitDy=0;entryX=0.418;entryY=0.033;entryDx=0;entryDy=0;entryPerimeter=0;" edge="1" parent="WIyWlLk6GJQsqaUBKTNV-1" source="lOGXAbCOyEfxw4sRU7QS-65" target="lOGXAbCOyEfxw4sRU7QS-67">
          <mxGeometry relative="1" as="geometry" />
        </mxCell>
        <mxCell id="fRCAeJa1ZqHoWWwUZXJR-14" style="edgeStyle=orthogonalEdgeStyle;rounded=0;orthogonalLoop=1;jettySize=auto;html=1;entryX=0.438;entryY=-0.02;entryDx=0;entryDy=0;entryPerimeter=0;" edge="1" parent="WIyWlLk6GJQsqaUBKTNV-1" source="lOGXAbCOyEfxw4sRU7QS-12" target="lOGXAbCOyEfxw4sRU7QS-17">
          <mxGeometry relative="1" as="geometry" />
        </mxCell>
        <mxCell id="bgav8Fi3GHFBIJAae7oM-4" style="edgeStyle=none;curved=1;rounded=0;orthogonalLoop=1;jettySize=auto;html=1;exitX=0;exitY=0.75;exitDx=0;exitDy=0;fontSize=12;startSize=8;endSize=8;" edge="1" parent="WIyWlLk6GJQsqaUBKTNV-1" source="bgav8Fi3GHFBIJAae7oM-0">
          <mxGeometry relative="1" as="geometry">
            <mxPoint x="90" y="-1120" as="targetPoint" />
          </mxGeometry>
        </mxCell>
        <mxCell id="bgav8Fi3GHFBIJAae7oM-0" value="&lt;div style=&quot;font-family: Consolas, &amp;quot;Courier New&amp;quot;, monospace; font-size: 14px; line-height: 19px;&quot;&gt;&lt;span style=&quot;background-color: rgb(255, 255, 255);&quot;&gt;__ziskajJednoducheObjekty&lt;/span&gt;&lt;/div&gt;" style="rounded=0;whiteSpace=wrap;html=1;fontSize=12;fillColor=#F08E81;strokeColor=#FFFFFF;fontColor=#1A1A1A;labelBackgroundColor=none;fontStyle=1;" vertex="1" parent="WIyWlLk6GJQsqaUBKTNV-1">
          <mxGeometry x="330" y="-1169" width="200" height="60" as="geometry" />
        </mxCell>
        <mxCell id="dJ_uhpHyO_3g0uceTIqO-4" style="edgeStyle=orthogonalEdgeStyle;rounded=0;orthogonalLoop=1;jettySize=auto;html=1;exitX=0.25;exitY=1;exitDx=0;exitDy=0;entryX=0.5;entryY=0;entryDx=0;entryDy=0;labelBackgroundColor=none;fontColor=default;strokeColor=#182E3E;" edge="1" parent="WIyWlLk6GJQsqaUBKTNV-1" source="dJ_uhpHyO_3g0uceTIqO-6" target="dJ_uhpHyO_3g0uceTIqO-25">
          <mxGeometry relative="1" as="geometry" />
        </mxCell>
        <mxCell id="dJ_uhpHyO_3g0uceTIqO-5" style="edgeStyle=none;curved=1;rounded=0;orthogonalLoop=1;jettySize=auto;html=1;exitX=0.5;exitY=0;exitDx=0;exitDy=0;fontSize=12;startSize=8;endSize=8;" edge="1" parent="WIyWlLk6GJQsqaUBKTNV-1" source="dJ_uhpHyO_3g0uceTIqO-6">
          <mxGeometry relative="1" as="geometry">
            <mxPoint x="90" y="-1120" as="targetPoint" />
          </mxGeometry>
        </mxCell>
        <mxCell id="dJ_uhpHyO_3g0uceTIqO-6" value="&lt;div style=&quot;font-family: Consolas, &amp;quot;Courier New&amp;quot;, monospace; line-height: 19px;&quot;&gt;&lt;div style=&quot;line-height: 19px;&quot;&gt;&lt;font style=&quot;font-size: 17px;&quot; color=&quot;#ffffff&quot;&gt;ZiskavanieDatZoSluzieb&lt;/font&gt;&lt;/div&gt;&lt;/div&gt;" style="rounded=0;whiteSpace=wrap;html=1;labelBackgroundColor=none;fillColor=#FF0000;strokeColor=#36393d;fontStyle=1" vertex="1" parent="WIyWlLk6GJQsqaUBKTNV-1">
          <mxGeometry x="-35.25" y="-819" width="250" height="140" as="geometry" />
        </mxCell>
        <mxCell id="dJ_uhpHyO_3g0uceTIqO-7" style="edgeStyle=orthogonalEdgeStyle;rounded=0;orthogonalLoop=1;jettySize=auto;html=1;entryX=0.5;entryY=0;entryDx=0;entryDy=0;labelBackgroundColor=none;fontColor=default;strokeColor=#182E3E;" edge="1" parent="WIyWlLk6GJQsqaUBKTNV-1" source="dJ_uhpHyO_3g0uceTIqO-8" target="dJ_uhpHyO_3g0uceTIqO-6">
          <mxGeometry relative="1" as="geometry" />
        </mxCell>
        <mxCell id="dJ_uhpHyO_3g0uceTIqO-8" value="&lt;div style=&quot;font-family: Consolas, &amp;quot;Courier New&amp;quot;, monospace; font-size: 14px; line-height: 19px;&quot;&gt;&lt;font style=&quot;background-color: rgb(255, 255, 255);&quot; color=&quot;#1a1a1a&quot;&gt;__ziskajNestedObjekty&lt;/font&gt;&lt;/div&gt;" style="rounded=0;whiteSpace=wrap;html=1;labelBackgroundColor=none;fillColor=#F08E81;strokeColor=#FFFFFF;fontColor=#1A1A1A;" vertex="1" parent="WIyWlLk6GJQsqaUBKTNV-1">
          <mxGeometry x="-606.25" y="-959" width="170" height="60" as="geometry" />
        </mxCell>
        <mxCell id="dJ_uhpHyO_3g0uceTIqO-9" style="edgeStyle=orthogonalEdgeStyle;rounded=0;orthogonalLoop=1;jettySize=auto;html=1;entryX=0.5;entryY=0;entryDx=0;entryDy=0;" edge="1" parent="WIyWlLk6GJQsqaUBKTNV-1" source="dJ_uhpHyO_3g0uceTIqO-10" target="dJ_uhpHyO_3g0uceTIqO-8">
          <mxGeometry relative="1" as="geometry">
            <Array as="points">
              <mxPoint x="-521" y="-959" />
            </Array>
          </mxGeometry>
        </mxCell>
        <mxCell id="dJ_uhpHyO_3g0uceTIqO-10" value="&lt;div style=&quot;font-family: Consolas, &amp;quot;Courier New&amp;quot;, monospace; font-size: 14px; line-height: 19px;&quot;&gt;&lt;font color=&quot;#1a1a1a&quot; style=&quot;background-color: rgb(255, 255, 255);&quot;&gt;__ziskajObjektoveHodnoty&lt;/font&gt;&lt;/div&gt;" style="whiteSpace=wrap;html=1;rounded=0;labelBackgroundColor=none;fillColor=#F08E81;strokeColor=#FFFFFF;fontColor=#1A1A1A;fontStyle=1" vertex="1" parent="WIyWlLk6GJQsqaUBKTNV-1">
          <mxGeometry x="-623.75" y="-1089" width="205" height="50" as="geometry" />
        </mxCell>
        <mxCell id="dJ_uhpHyO_3g0uceTIqO-11" style="edgeStyle=orthogonalEdgeStyle;rounded=0;orthogonalLoop=1;jettySize=auto;html=1;entryX=0.5;entryY=0;entryDx=0;entryDy=0;" edge="1" parent="WIyWlLk6GJQsqaUBKTNV-1" source="dJ_uhpHyO_3g0uceTIqO-12" target="dJ_uhpHyO_3g0uceTIqO-26">
          <mxGeometry relative="1" as="geometry" />
        </mxCell>
        <mxCell id="dJ_uhpHyO_3g0uceTIqO-12" value="&lt;div style=&quot;font-family: Consolas, &amp;quot;Courier New&amp;quot;, monospace; font-size: 14px; line-height: 19px;&quot;&gt;&lt;span style=&quot;background-color: rgb(255, 255, 255);&quot;&gt;&lt;font color=&quot;#1a1a1a&quot;&gt;__ziskajVonkajsieObjekty&lt;/font&gt;&lt;/span&gt;&lt;/div&gt;" style="whiteSpace=wrap;html=1;rounded=0;labelBackgroundColor=none;fillColor=#F08E81;strokeColor=#FFFFFF;fontColor=#1A1A1A;fontStyle=1" vertex="1" parent="WIyWlLk6GJQsqaUBKTNV-1">
          <mxGeometry x="521.25" y="-609" width="206" height="60" as="geometry" />
        </mxCell>
        <mxCell id="dJ_uhpHyO_3g0uceTIqO-13" style="edgeStyle=orthogonalEdgeStyle;rounded=0;orthogonalLoop=1;jettySize=auto;html=1;" edge="1" parent="WIyWlLk6GJQsqaUBKTNV-1" source="dJ_uhpHyO_3g0uceTIqO-14" target="dJ_uhpHyO_3g0uceTIqO-6">
          <mxGeometry relative="1" as="geometry">
            <Array as="points">
              <mxPoint x="294" y="-809" />
              <mxPoint x="294" y="-810" />
            </Array>
          </mxGeometry>
        </mxCell>
        <mxCell id="dJ_uhpHyO_3g0uceTIqO-14" value="&lt;div style=&quot;font-family: Consolas, &amp;quot;Courier New&amp;quot;, monospace; font-size: 14px; line-height: 19px;&quot;&gt;&lt;span style=&quot;background-color: rgb(255, 255, 255);&quot;&gt;&lt;br&gt;&lt;/span&gt;&lt;/div&gt;&lt;div style=&quot;font-family: Consolas, &amp;quot;Courier New&amp;quot;, monospace; font-size: 14px; line-height: 19px;&quot;&gt;&lt;div style=&quot;border-color: var(--border-color); text-align: left; line-height: 19px;&quot;&gt;&lt;div style=&quot;border-color: var(--border-color);&quot;&gt;&lt;font style=&quot;border-color: var(--border-color); background-color: rgb(255, 255, 255);&quot;&gt;__ziskajPrimitivneDoObjektu&lt;/font&gt;&lt;br&gt;&lt;/div&gt;&lt;/div&gt;&lt;font style=&quot;border-color: var(--border-color); font-family: Helvetica; font-size: 12px; text-align: left;&quot;&gt;&lt;span style=&quot;background-color: rgb(255, 255, 255);&quot;&gt;&lt;br style=&quot;border-color: var(--border-color); text-align: center;&quot;&gt;&lt;/span&gt;&lt;br style=&quot;border-color: var(--border-color);&quot;&gt;&lt;/font&gt;&lt;/div&gt;" style="whiteSpace=wrap;html=1;rounded=0;labelBackgroundColor=none;fillColor=#F08E81;strokeColor=#FFFFFF;fontColor=#1A1A1A;fontStyle=1;" vertex="1" parent="WIyWlLk6GJQsqaUBKTNV-1">
          <mxGeometry x="373.75" y="-839" width="216.25" height="60" as="geometry" />
        </mxCell>
        <mxCell id="dJ_uhpHyO_3g0uceTIqO-15" value="&lt;span style=&quot;background-color: rgb(255, 255, 255);&quot;&gt;__jePrimitivna&lt;/span&gt;&lt;font color=&quot;#ffffff&quot;&gt;&lt;br&gt;&lt;/font&gt;" style="rounded=0;whiteSpace=wrap;html=1;labelBackgroundColor=none;fillColor=#F08E81;strokeColor=#FFFFFF;fontColor=#1A1A1A;fontStyle=0" vertex="1" parent="WIyWlLk6GJQsqaUBKTNV-1">
          <mxGeometry x="381.25" y="-739" width="120" height="50" as="geometry" />
        </mxCell>
        <mxCell id="dJ_uhpHyO_3g0uceTIqO-16" style="edgeStyle=orthogonalEdgeStyle;rounded=0;orthogonalLoop=1;jettySize=auto;html=1;exitX=0.5;exitY=1;exitDx=0;exitDy=0;" edge="1" parent="WIyWlLk6GJQsqaUBKTNV-1" source="dJ_uhpHyO_3g0uceTIqO-17" target="dJ_uhpHyO_3g0uceTIqO-20">
          <mxGeometry relative="1" as="geometry" />
        </mxCell>
        <mxCell id="dJ_uhpHyO_3g0uceTIqO-17" value="&lt;b style=&quot;background-color: rgb(255, 255, 255);&quot;&gt;__ziskajNestedObjekty&lt;/b&gt;" style="rounded=0;whiteSpace=wrap;html=1;labelBackgroundColor=none;fillColor=#F08E81;strokeColor=#FFFFFF;fontColor=#1A1A1A;" vertex="1" parent="WIyWlLk6GJQsqaUBKTNV-1">
          <mxGeometry x="-628.75" y="-669" width="210" height="60" as="geometry" />
        </mxCell>
        <mxCell id="dJ_uhpHyO_3g0uceTIqO-18" value="&lt;div style=&quot;font-family: Consolas, &amp;quot;Courier New&amp;quot;, monospace; font-size: 14px; line-height: 19px;&quot;&gt;&lt;font style=&quot;background-color: rgb(255, 255, 255);&quot; color=&quot;#1a1a1a&quot;&gt;__ziskajObjektoveKluce&lt;/font&gt;&lt;/div&gt;" style="whiteSpace=wrap;html=1;rounded=0;labelBackgroundColor=none;fillColor=#F08E81;strokeColor=#FFFFFF;fontColor=#1A1A1A;" vertex="1" parent="WIyWlLk6GJQsqaUBKTNV-1">
          <mxGeometry x="-268.75" y="-569" width="190" height="60" as="geometry" />
        </mxCell>
        <mxCell id="dJ_uhpHyO_3g0uceTIqO-19" style="edgeStyle=orthogonalEdgeStyle;rounded=0;orthogonalLoop=1;jettySize=auto;html=1;entryX=0.5;entryY=1;entryDx=0;entryDy=0;labelBackgroundColor=none;fontColor=default;strokeColor=#182E3E;" edge="1" parent="WIyWlLk6GJQsqaUBKTNV-1" source="dJ_uhpHyO_3g0uceTIqO-20" target="dJ_uhpHyO_3g0uceTIqO-6">
          <mxGeometry relative="1" as="geometry" />
        </mxCell>
        <mxCell id="dJ_uhpHyO_3g0uceTIqO-20" value="&lt;div style=&quot;font-family: Consolas, &amp;quot;Courier New&amp;quot;, monospace; font-size: 14px; line-height: 19px;&quot;&gt;&lt;font style=&quot;background-color: rgb(255, 255, 255);&quot; color=&quot;#1a1a1a&quot;&gt;__ziskajObjektoveHodnoty&lt;/font&gt;&lt;br&gt;&lt;/div&gt;" style="rounded=0;whiteSpace=wrap;html=1;labelBackgroundColor=none;fillColor=#F08E81;strokeColor=#FFFFFF;fontColor=#1A1A1A;" vertex="1" parent="WIyWlLk6GJQsqaUBKTNV-1">
          <mxGeometry x="-630" y="-499" width="212.5" height="60" as="geometry" />
        </mxCell>
        <mxCell id="dJ_uhpHyO_3g0uceTIqO-21" value="&lt;span style=&quot;background-color: rgb(255, 255, 255);&quot;&gt;&lt;font color=&quot;#1a1a1a&quot;&gt;&lt;br&gt;&lt;/font&gt;&lt;/span&gt;&lt;div style=&quot;font-family: Consolas, &amp;quot;Courier New&amp;quot;, monospace; font-weight: normal; font-size: 14px; line-height: 19px;&quot;&gt;&lt;div&gt;&lt;span style=&quot;font-style: italic; background-color: rgb(255, 255, 255);&quot;&gt;&lt;font color=&quot;#1a1a1a&quot;&gt;__primitivne&lt;/font&gt;&lt;/span&gt;&lt;/div&gt;&lt;/div&gt;&lt;span style=&quot;background-color: rgb(255, 255, 255);&quot;&gt;&lt;br&gt;&lt;/span&gt;" style="rounded=0;whiteSpace=wrap;html=1;labelBackgroundColor=none;fillColor=#F08E81;strokeColor=#FFFFFF;fontColor=#1A1A1A;" vertex="1" parent="WIyWlLk6GJQsqaUBKTNV-1">
          <mxGeometry x="-248.25" y="-749" width="120" height="60" as="geometry" />
        </mxCell>
        <mxCell id="dJ_uhpHyO_3g0uceTIqO-22" style="edgeStyle=orthogonalEdgeStyle;rounded=0;orthogonalLoop=1;jettySize=auto;html=1;exitX=0.5;exitY=1;exitDx=0;exitDy=0;entryX=0.5;entryY=0;entryDx=0;entryDy=0;" edge="1" parent="WIyWlLk6GJQsqaUBKTNV-1" source="dJ_uhpHyO_3g0uceTIqO-23" target="dJ_uhpHyO_3g0uceTIqO-18">
          <mxGeometry relative="1" as="geometry" />
        </mxCell>
        <mxCell id="dJ_uhpHyO_3g0uceTIqO-23" value="&lt;div style=&quot;font-family: Consolas, &amp;quot;Courier New&amp;quot;, monospace; font-size: 14px; line-height: 19px;&quot;&gt;&lt;font style=&quot;background-color: rgb(255, 255, 255);&quot; color=&quot;#1a1a1a&quot;&gt;__ziskajNestedObjekty&lt;/font&gt;&lt;/div&gt;" style="rounded=0;whiteSpace=wrap;html=1;labelBackgroundColor=none;fillColor=#F08E81;strokeColor=#FFFFFF;fontColor=#1A1A1A;" vertex="1" parent="WIyWlLk6GJQsqaUBKTNV-1">
          <mxGeometry x="-258.75" y="-659" width="170" height="60" as="geometry" />
        </mxCell>
        <mxCell id="dJ_uhpHyO_3g0uceTIqO-24" style="edgeStyle=orthogonalEdgeStyle;rounded=0;orthogonalLoop=1;jettySize=auto;html=1;exitX=0.5;exitY=1;exitDx=0;exitDy=0;entryX=0.5;entryY=0;entryDx=0;entryDy=0;" edge="1" parent="WIyWlLk6GJQsqaUBKTNV-1" source="dJ_uhpHyO_3g0uceTIqO-25" target="dJ_uhpHyO_3g0uceTIqO-21">
          <mxGeometry relative="1" as="geometry" />
        </mxCell>
        <mxCell id="dJ_uhpHyO_3g0uceTIqO-25" value="&lt;div style=&quot;font-family: Consolas, &amp;quot;Courier New&amp;quot;, monospace; font-size: 14px; line-height: 19px;&quot;&gt;&lt;span style=&quot;background-color: rgb(255, 255, 255);&quot;&gt;&lt;font color=&quot;#1a1a1a&quot;&gt;__ziskajUdaje&lt;/font&gt;&lt;/span&gt;&lt;/div&gt;" style="rounded=0;whiteSpace=wrap;html=1;labelBackgroundColor=none;fillColor=#F08E81;strokeColor=#FFFFFF;fontColor=#1A1A1A;fontStyle=1" vertex="1" parent="WIyWlLk6GJQsqaUBKTNV-1">
          <mxGeometry x="-248.25" y="-829" width="120" height="60" as="geometry" />
        </mxCell>
        <mxCell id="dJ_uhpHyO_3g0uceTIqO-26" value="&lt;div style=&quot;font-family: Consolas, &amp;quot;Courier New&amp;quot;, monospace; font-size: 14px; line-height: 19px;&quot;&gt;&lt;font style=&quot;background-color: rgb(255, 255, 255);&quot; color=&quot;#1a1a1a&quot;&gt;__ziskajObjektoveHodnoty&lt;/font&gt;&lt;/div&gt;" style="whiteSpace=wrap;html=1;rounded=0;labelBackgroundColor=none;fillColor=#F08E81;strokeColor=#FFFFFF;fontColor=#1A1A1A;" vertex="1" parent="WIyWlLk6GJQsqaUBKTNV-1">
          <mxGeometry x="521.25" y="-499" width="205" height="60" as="geometry" />
        </mxCell>
        <mxCell id="dJ_uhpHyO_3g0uceTIqO-27" style="edgeStyle=orthogonalEdgeStyle;rounded=0;orthogonalLoop=1;jettySize=auto;html=1;entryX=0.996;entryY=0.657;entryDx=0;entryDy=0;entryPerimeter=0;labelBackgroundColor=none;fontColor=default;strokeColor=#182E3E;" edge="1" parent="WIyWlLk6GJQsqaUBKTNV-1" source="dJ_uhpHyO_3g0uceTIqO-26" target="dJ_uhpHyO_3g0uceTIqO-6">
          <mxGeometry relative="1" as="geometry" />
        </mxCell>
        <mxCell id="dJ_uhpHyO_3g0uceTIqO-28" style="edgeStyle=orthogonalEdgeStyle;rounded=0;orthogonalLoop=1;jettySize=auto;html=1;exitX=0;exitY=0.5;exitDx=0;exitDy=0;entryX=0.75;entryY=0;entryDx=0;entryDy=0;labelBackgroundColor=none;fontColor=default;strokeColor=#182E3E;" edge="1" parent="WIyWlLk6GJQsqaUBKTNV-1" source="dJ_uhpHyO_3g0uceTIqO-29" target="dJ_uhpHyO_3g0uceTIqO-6">
          <mxGeometry relative="1" as="geometry" />
        </mxCell>
        <mxCell id="dJ_uhpHyO_3g0uceTIqO-29" value="&lt;div style=&quot;font-family: Consolas, &amp;quot;Courier New&amp;quot;, monospace; font-size: 14px; line-height: 19px;&quot;&gt;&lt;span style=&quot;background-color: rgb(255, 255, 255);&quot;&gt;&lt;font color=&quot;#1a1a1a&quot;&gt;__ziskajObjektoveHodnoty&lt;/font&gt;&lt;/span&gt;&lt;/div&gt;" style="whiteSpace=wrap;html=1;rounded=0;labelBackgroundColor=none;fillColor=#F08E81;strokeColor=#FFFFFF;fontColor=#1A1A1A;fontStyle=1" vertex="1" parent="WIyWlLk6GJQsqaUBKTNV-1">
          <mxGeometry x="338.75" y="-1029" width="190" height="60" as="geometry" />
        </mxCell>
        <mxCell id="dJ_uhpHyO_3g0uceTIqO-30" value="&lt;div style=&quot;font-family: Consolas, &amp;quot;Courier New&amp;quot;, monospace; font-size: 14px; line-height: 19px;&quot;&gt;&lt;span style=&quot;background-color: rgb(255, 255, 255);&quot;&gt;&lt;font color=&quot;#1a1a1a&quot;&gt;__jePrimitivna&lt;/font&gt;&lt;/span&gt;&lt;/div&gt;" style="whiteSpace=wrap;html=1;rounded=0;labelBackgroundColor=none;fillColor=#F08E81;strokeColor=#FFFFFF;fontColor=#1A1A1A;fontStyle=1" vertex="1" parent="WIyWlLk6GJQsqaUBKTNV-1">
          <mxGeometry x="338.75" y="-949" width="190" height="60" as="geometry" />
        </mxCell>
        <mxCell id="dJ_uhpHyO_3g0uceTIqO-31" value="&lt;div style=&quot;font-family: Consolas, &amp;quot;Courier New&amp;quot;, monospace; font-size: 14px; line-height: 19px;&quot;&gt;&lt;span style=&quot;background-color: rgb(255, 255, 255);&quot;&gt;&lt;font color=&quot;#1a1a1a&quot;&gt;__ziskajObjektoveKluce&lt;/font&gt;&lt;/span&gt;&lt;/div&gt;" style="rounded=0;whiteSpace=wrap;html=1;labelBackgroundColor=none;fillColor=#F08E81;strokeColor=#FFFFFF;fontColor=#1A1A1A;fontStyle=1" vertex="1" parent="WIyWlLk6GJQsqaUBKTNV-1">
          <mxGeometry x="338.75" y="-1109" width="190" height="60" as="geometry" />
        </mxCell>
        <mxCell id="dJ_uhpHyO_3g0uceTIqO-32" style="edgeStyle=orthogonalEdgeStyle;rounded=0;orthogonalLoop=1;jettySize=auto;html=1;exitX=0;exitY=0.5;exitDx=0;exitDy=0;entryX=0.644;entryY=-0.014;entryDx=0;entryDy=0;entryPerimeter=0;labelBackgroundColor=none;fontColor=default;strokeColor=#182E3E;" edge="1" parent="WIyWlLk6GJQsqaUBKTNV-1" source="dJ_uhpHyO_3g0uceTIqO-31" target="dJ_uhpHyO_3g0uceTIqO-6">
          <mxGeometry relative="1" as="geometry" />
        </mxCell>
        <mxCell id="dJ_uhpHyO_3g0uceTIqO-33" style="edgeStyle=orthogonalEdgeStyle;rounded=0;orthogonalLoop=1;jettySize=auto;html=1;exitX=0;exitY=0.5;exitDx=0;exitDy=0;entryX=0.868;entryY=-0.014;entryDx=0;entryDy=0;entryPerimeter=0;labelBackgroundColor=none;fontColor=default;strokeColor=#182E3E;" edge="1" parent="WIyWlLk6GJQsqaUBKTNV-1" source="dJ_uhpHyO_3g0uceTIqO-30" target="dJ_uhpHyO_3g0uceTIqO-6">
          <mxGeometry relative="1" as="geometry" />
        </mxCell>
        <mxCell id="dJ_uhpHyO_3g0uceTIqO-34" value="" style="edgeStyle=orthogonalEdgeStyle;rounded=0;orthogonalLoop=1;jettySize=auto;html=1;" edge="1" parent="WIyWlLk6GJQsqaUBKTNV-1" source="dJ_uhpHyO_3g0uceTIqO-35">
          <mxGeometry relative="1" as="geometry">
            <mxPoint x="94.74999999999955" y="-109" as="targetPoint" />
          </mxGeometry>
        </mxCell>
        <mxCell id="dJ_uhpHyO_3g0uceTIqO-35" value="&lt;div style=&quot;font-family: Consolas, &amp;quot;Courier New&amp;quot;, monospace; line-height: 19px;&quot;&gt;&lt;div style=&quot;line-height: 19px;&quot;&gt;&lt;font style=&quot;font-size: 17px;&quot; color=&quot;#ffffff&quot;&gt;Spracovanie dát&lt;/font&gt;&lt;/div&gt;&lt;/div&gt;" style="rounded=0;whiteSpace=wrap;html=1;labelBackgroundColor=none;fillColor=#00994D;strokeColor=#36393d;fontStyle=1" vertex="1" parent="WIyWlLk6GJQsqaUBKTNV-1">
          <mxGeometry x="-25.25" y="-319" width="240" height="140" as="geometry" />
        </mxCell>
        <mxCell id="dJ_uhpHyO_3g0uceTIqO-36" value="&lt;div style=&quot;font-family: Consolas, &amp;quot;Courier New&amp;quot;, monospace; font-size: 14px; line-height: 19px;&quot;&gt;&lt;font style=&quot;&quot; color=&quot;#ffffff&quot;&gt;__najdiDuplikat&lt;/font&gt;&lt;/div&gt;" style="whiteSpace=wrap;html=1;fillColor=#F08E81;strokeColor=#36393d;rounded=0;labelBackgroundColor=none;fontStyle=1;" vertex="1" parent="WIyWlLk6GJQsqaUBKTNV-1">
          <mxGeometry x="332" y="-269" width="162.5" height="60" as="geometry" />
        </mxCell>
        <mxCell id="dJ_uhpHyO_3g0uceTIqO-37" value="" style="shape=flexArrow;endArrow=classic;html=1;rounded=0;strokeColor=#182E3E;fontColor=#1A1A1A;exitX=0.566;exitY=1.021;exitDx=0;exitDy=0;exitPerimeter=0;entryX=0.531;entryY=0.007;entryDx=0;entryDy=0;entryPerimeter=0;" edge="1" parent="WIyWlLk6GJQsqaUBKTNV-1" target="dJ_uhpHyO_3g0uceTIqO-35">
          <mxGeometry width="50" height="50" relative="1" as="geometry">
            <mxPoint x="106.25" y="-679" as="sourcePoint" />
            <mxPoint x="104.8188888888887" y="-321.94" as="targetPoint" />
          </mxGeometry>
        </mxCell>
        <mxCell id="dJ_uhpHyO_3g0uceTIqO-38" value="Citanie" style="swimlane;fontStyle=0;childLayout=stackLayout;horizontal=1;startSize=30;horizontalStack=0;resizeParent=1;resizeParentMax=0;resizeLast=0;collapsible=1;marginBottom=0;whiteSpace=wrap;html=1;" vertex="1" parent="WIyWlLk6GJQsqaUBKTNV-1">
          <mxGeometry x="-78.75" y="-1154" width="140" height="150" as="geometry" />
        </mxCell>
        <mxCell id="dJ_uhpHyO_3g0uceTIqO-39" value="Stred objekt" style="text;strokeColor=none;fillColor=none;align=center;verticalAlign=middle;spacingLeft=4;spacingRight=4;overflow=hidden;points=[[0,0.5],[1,0.5]];portConstraint=eastwest;rotatable=0;whiteSpace=wrap;html=1;" vertex="1" parent="dJ_uhpHyO_3g0uceTIqO-38">
          <mxGeometry y="30" width="140" height="30" as="geometry" />
        </mxCell>
        <mxCell id="dJ_uhpHyO_3g0uceTIqO-40" value="Na hlavnu pripojena funkcia potrebna pre fungovanie hlavnej" style="text;strokeColor=none;fillColor=none;align=left;verticalAlign=middle;spacingLeft=4;spacingRight=4;overflow=hidden;points=[[0,0.5],[1,0.5]];portConstraint=eastwest;rotatable=0;whiteSpace=wrap;html=1;" vertex="1" parent="dJ_uhpHyO_3g0uceTIqO-38">
          <mxGeometry y="60" width="140" height="60" as="geometry" />
        </mxCell>
        <mxCell id="dJ_uhpHyO_3g0uceTIqO-41" value="Hrube pismo(bold) hlavna funckcia" style="text;strokeColor=none;fillColor=none;align=left;verticalAlign=middle;spacingLeft=4;spacingRight=4;overflow=hidden;points=[[0,0.5],[1,0.5]];portConstraint=eastwest;rotatable=0;whiteSpace=wrap;html=1;" vertex="1" parent="dJ_uhpHyO_3g0uceTIqO-38">
          <mxGeometry y="120" width="140" height="30" as="geometry" />
        </mxCell>
        <mxCell id="dJ_uhpHyO_3g0uceTIqO-42" style="edgeStyle=orthogonalEdgeStyle;rounded=0;orthogonalLoop=1;jettySize=auto;html=1;exitX=0;exitY=0.5;exitDx=0;exitDy=0;entryX=0.996;entryY=0.57;entryDx=0;entryDy=0;entryPerimeter=0;" edge="1" parent="WIyWlLk6GJQsqaUBKTNV-1" source="dJ_uhpHyO_3g0uceTIqO-36" target="dJ_uhpHyO_3g0uceTIqO-35">
          <mxGeometry relative="1" as="geometry" />
        </mxCell>
        <mxCell id="dJ_uhpHyO_3g0uceTIqO-43" value="&lt;b style=&quot;background-color: rgb(255, 255, 153);&quot;&gt;&lt;font style=&quot;font-size: 20px;&quot;&gt;Zdedi funkcie&lt;/font&gt;&lt;/b&gt;" style="text;html=1;strokeColor=none;fillColor=none;align=center;verticalAlign=middle;whiteSpace=wrap;rounded=0;rotation=90;" vertex="1" parent="WIyWlLk6GJQsqaUBKTNV-1">
          <mxGeometry x="37.5" y="-567.75" width="217.5" height="40" as="geometry" />
        </mxCell>
        <mxCell id="dJ_uhpHyO_3g0uceTIqO-44" value="&lt;font style=&quot;font-size: 13px;&quot; color=&quot;#ffffff&quot;&gt;UlozKlucHodnotuDoPostmana&lt;/font&gt;" style="whiteSpace=wrap;html=1;fillColor=#F08E81;strokeColor=#36393d;rounded=0;labelBackgroundColor=none;fontStyle=1;" vertex="1" parent="WIyWlLk6GJQsqaUBKTNV-1">
          <mxGeometry x="-14.129999999999995" y="-109" width="217.75" height="60" as="geometry" />
        </mxCell>
        <mxCell id="dJ_uhpHyO_3g0uceTIqO-45" style="edgeStyle=orthogonalEdgeStyle;rounded=0;orthogonalLoop=1;jettySize=auto;html=1;exitX=0.5;exitY=1;exitDx=0;exitDy=0;entryX=0.418;entryY=0.033;entryDx=0;entryDy=0;entryPerimeter=0;" edge="1" parent="WIyWlLk6GJQsqaUBKTNV-1" source="dJ_uhpHyO_3g0uceTIqO-21" target="dJ_uhpHyO_3g0uceTIqO-23">
          <mxGeometry relative="1" as="geometry" />
        </mxCell>
        <mxCell id="dJ_uhpHyO_3g0uceTIqO-46" style="edgeStyle=orthogonalEdgeStyle;rounded=0;orthogonalLoop=1;jettySize=auto;html=1;entryX=0.438;entryY=-0.02;entryDx=0;entryDy=0;entryPerimeter=0;" edge="1" parent="WIyWlLk6GJQsqaUBKTNV-1" source="dJ_uhpHyO_3g0uceTIqO-14" target="dJ_uhpHyO_3g0uceTIqO-15">
          <mxGeometry relative="1" as="geometry" />
        </mxCell>
        <mxCell id="dJ_uhpHyO_3g0uceTIqO-47" style="edgeStyle=none;curved=1;rounded=0;orthogonalLoop=1;jettySize=auto;html=1;exitX=0;exitY=0.75;exitDx=0;exitDy=0;fontSize=12;startSize=8;endSize=8;" edge="1" parent="WIyWlLk6GJQsqaUBKTNV-1" source="dJ_uhpHyO_3g0uceTIqO-48">
          <mxGeometry relative="1" as="geometry">
            <mxPoint x="90" y="-1120" as="targetPoint" />
          </mxGeometry>
        </mxCell>
        <mxCell id="dJ_uhpHyO_3g0uceTIqO-48" value="&lt;div style=&quot;font-family: Consolas, &amp;quot;Courier New&amp;quot;, monospace; font-size: 14px; line-height: 19px;&quot;&gt;&lt;span style=&quot;background-color: rgb(255, 255, 255);&quot;&gt;__ziskajJednoducheObjekty&lt;/span&gt;&lt;/div&gt;" style="rounded=0;whiteSpace=wrap;html=1;fontSize=12;fillColor=#F08E81;strokeColor=#FFFFFF;fontColor=#1A1A1A;labelBackgroundColor=none;fontStyle=1;" vertex="1" parent="WIyWlLk6GJQsqaUBKTNV-1">
          <mxGeometry x="330" y="-1169" width="200" height="60" as="geometry" />
        </mxCell>
      </root>
    </mxGraphModel>
  </diagram>
</mxfile>
